<svg xmlns="http://www.w3.org/2000/svg" width="480" height="600" viewBox="0 0 480 600">
<defs><linearGradient id="bg" x1="0" y1="0" x2="0" y2="1"><stop offset="0" stop-color="#f3f1ec"/><stop offset="1" stop-color="#f3f1ec"/></linearGradient>
<pattern id="stripes" width="24" height="24" patternUnits="userSpaceOnUse"><rect width="24" height="24" fill="#b8895a"/><rect width="24" height="10" fill="#b8895a"/></pattern></defs>
<rect width="480" height="600" fill="url(#bg)"/><g transform="translate(240 320) rotate(0) scale(1) translate(-240 -320)"><path d="M176 92 L240 140 L304 92 L382 122 L430 470 L382 482 L352 250 L362 570 L118 570 L128 250 L98 482 L50 470 L98 122 Z" fill="#b8895a" stroke="#81603f" stroke-width="4" stroke-linejoin="round"/><path d="M176 92 L208 240 L240 300 L272 240 L304 92" fill="none" stroke="#81603f" stroke-width="3" stroke-linecap="round"/><path d="M240 300 L240 570" fill="none" stroke="#81603f" stroke-width="3" stroke-linecap="round"/></g></svg>