<svg xmlns="http://www.w3.org/2000/svg" width="480" height="600" viewBox="0 0 480 600">
<defs><linearGradient id="bg" x1="0" y1="0" x2="0" y2="1"><stop offset="0" stop-color="#f3f1ec"/><stop offset="1" stop-color="#f3f1ec"/></linearGradient>
<pattern id="stripes" width="24" height="24" patternUnits="userSpaceOnUse"><rect width="24" height="24" fill="#26324f"/><rect width="24" height="10" fill="#26324f"/></pattern></defs>
<rect width="480" height="600" fill="url(#bg)"/><g transform="translate(240 320) rotate(0) scale(1) translate(-240 -320)"><path d="M185 108 L240 146 L295 108 L378 138 L428 430 L380 442 L350 250 L346 300 L372 565 L108 565 L134 300 L130 250 L100 442 L52 430 L102 138 Z" fill="#26324f" stroke="#1b2337" stroke-width="4" stroke-linejoin="round"/><path d="M185 108 L215 165 L240 146 L265 165 L295 108" fill="none" stroke="#1b2337" stroke-width="3" stroke-linecap="round"/><path d="M240 146 L240 565" fill="none" stroke="#1b2337" stroke-width="3" stroke-linecap="round"/><path d="M134 300 L346 300" fill="none" stroke="#1b2337" stroke-width="3" stroke-linecap="round"/></g></svg>